Coordinates
version=1
nRows=26
nColumns=24
inDegrees=yes

Units are S.I. units (second, meters, Newtons, ...)
Angles are in degrees.

endheader
time	pelvis_tilt	pelvis_list	pelvis_rotation	pelvis_tx	pelvis_ty	pelvis_tz	hip_flexion_r	hip_adduction_r	hip_rotation_r	knee_angle_r	ankle_angle_r	subtalar_angle_r	mtp_angle_r	hip_flexion_l	hip_adduction_l	hip_rotation_l	knee_angle_l	ankle_angle_l	subtalar_angle_l	mtp_angle_l	lumbar_extension	lumbar_bending	lumbar_rotation
      3.93500000	     -5.32074307	      5.64622946	    363.47604570	      0.19529687	      1.38033912	     -0.97360482	      2.30000000	    -10.86000000	      9.81000000	     -4.39000000	      0.00000000	      0.00000000	      0.00000000	      0.71000000	      5.21000000	     -0.08000000	     -1.04000000	      0.00000000	      0.00000000	      0.00000000	     -9.42405086	      1.85930464	     -1.96213160
      3.94000000	     -5.36732162	      5.62649583	    363.43472933	      0.20004611	      1.38083604	     -0.97324179	      2.30000000	    -10.86000000	      9.81000000	     -4.39000000	      0.00000000	      0.00000000	      0.00000000	      0.71000000	      5.21000000	     -0.08000000	     -1.04000000	      0.00000000	      0.00000000	      0.00000000	     -9.40114327	      1.84038905	     -1.99304333
      3.94500000	     -5.40347466	      5.60954938	    363.39628874	      0.20477235	      1.38131949	     -0.97288779	      2.30000000	    -10.86000000	      9.81000000	     -4.39000000	      0.00000000	      0.00000000	      0.00000000	      0.71000000	      5.21000000	     -0.08000000	     -1.04000000	      0.00000000	      0.00000000	      0.00000000	     -9.39399810	      1.81987805	     -2.03228895
      3.95000000	     -5.45956229	      5.60412510	    363.35963960	      0.20947339	      1.38177935	     -0.97254931	      2.30000000	    -10.86000000	      9.81000000	     -4.39000000	      0.00000000	      0.00000000	      0.00000000	      0.71000000	      5.21000000	     -0.08000000	     -1.04000000	      0.00000000	      0.00000000	      0.00000000	     -9.36693743	      1.78630147	     -2.07272613
      3.95500000	     -5.52626050	      5.58473523	    363.32947382	      0.21416333	      1.38215543	     -0.97222283	      2.30000000	    -10.86000000	      9.81000000	     -4.39000000	      0.00000000	      0.00000000	      0.00000000	      0.71000000	      5.21000000	     -0.08000000	     -1.04000000	      0.00000000	      0.00000000	      0.00000000	     -9.32416940	      1.76646707	     -2.11423045
      3.96000000	     -5.58198417	      5.57719197	    363.30350105	      0.21882807	      1.38253483	     -0.97191598	      2.30000000	    -10.86000000	      9.81000000	     -4.39000000	      0.00000000	      0.00000000	      0.00000000	      0.71000000	      5.21000000	     -0.08000000	     -1.04000000	      0.00000000	      0.00000000	      0.00000000	     -9.30022765	      1.73595155	     -2.16280898
      3.96500000	     -5.64417253	      5.57017383	    363.28353906	      0.22346438	      1.38287253	     -0.97162766	      2.30000000	    -10.86000000	      9.81000000	     -4.39000000	      0.00000000	      0.00000000	      0.00000000	      0.71000000	      5.21000000	     -0.08000000	     -1.04000000	      0.00000000	      0.00000000	      0.00000000	     -9.27734635	      1.70427422	     -2.21200966
      3.97000000	     -5.71419578	      5.57684998	    363.26960372	      0.22809576	      1.38319019	     -0.97136137	      2.30000000	    -10.86000000	      9.81000000	     -4.39000000	      0.00000000	      0.00000000	      0.00000000	      0.71000000	      5.21000000	     -0.08000000	     -1.04000000	      0.00000000	      0.00000000	      0.00000000	     -9.24038124	      1.65703769	     -2.26055273
      3.97500000	     -5.77714749	      5.58679719	    363.26262101	      0.23270947	      1.38348913	     -0.97111721	      2.30000000	    -10.86000000	      9.81000000	     -4.39000000	      0.00000000	      0.00000000	      0.00000000	      0.71000000	      5.21000000	     -0.08000000	     -1.04000000	      0.00000000	      0.00000000	      0.00000000	     -9.21819888	      1.60694100	     -2.31210969
      3.98000000	     -5.87363640	      5.58762010	    363.26325983	      0.23730245	      1.38371520	     -0.97089527	      2.30000000	    -10.86000000	      9.81000000	     -4.39000000	      0.00000000	      0.00000000	      0.00000000	      0.71000000	      5.21000000	     -0.08000000	     -1.04000000	      0.00000000	      0.00000000	      0.00000000	     -9.16010130	      1.56428710	     -2.35911525
      3.98500000	     -5.96057299	      5.59156330	    363.27016130	      0.24187604	      1.38394407	     -0.97070167	      2.30000000	    -10.86000000	      9.81000000	     -4.39000000	      0.00000000	      0.00000000	      0.00000000	      0.71000000	      5.21000000	     -0.08000000	     -1.04000000	      0.00000000	      0.00000000	      0.00000000	     -9.12185026	      1.52040527	     -2.41034582
      3.99000000	     -6.02762745	      5.59882943	    363.28177469	      0.24645757	      1.38415857	     -0.97053021	      2.30000000	    -10.86000000	      9.81000000	     -4.39000000	      0.00000000	      0.00000000	      0.00000000	      0.71000000	      5.21000000	     -0.08000000	     -1.04000000	      0.00000000	      0.00000000	      0.00000000	     -9.10349429	      1.47412228	     -2.45879762
      3.99500000	     -6.12146336	      5.60963279	    363.29914781	      0.25102114	      1.38434387	     -0.97038435	      2.30000000	    -10.86000000	      9.81000000	     -4.39000000	      0.00000000	      0.00000000	      0.00000000	      0.71000000	      5.21000000	     -0.08000000	     -1.04000000	      0.00000000	      0.00000000	      0.00000000	     -9.06106290	      1.42253706	     -2.50381608
      4.00000000	     -6.21139970	      5.60758539	    363.32175823	      0.25559206	      1.38447213	     -0.97026711	      2.30000000	    -10.86000000	      9.81000000	     -4.39000000	      0.00000000	      0.00000000	      0.00000000	      0.71000000	      5.21000000	     -0.08000000	     -1.04000000	      0.00000000	      0.00000000	      0.00000000	     -9.01731879	      1.38628320	     -2.54624799
      4.00500000	     -6.29273702	      5.62736708	    363.34841515	      0.26014796	      1.38463665	     -0.97017308	      2.30000000	    -10.86000000	      9.81000000	     -4.39000000	      0.00000000	      0.00000000	      0.00000000	      0.71000000	      5.21000000	     -0.08000000	     -1.04000000	      0.00000000	      0.00000000	      0.00000000	     -8.99730000	      1.32708832	     -2.58992055
      4.01000000	     -6.37109649	      5.62563599	    363.37670706	      0.26470726	      1.38474602	     -0.97010194	      2.30000000	    -10.86000000	      9.81000000	     -4.39000000	      0.00000000	      0.00000000	      0.00000000	      0.71000000	      5.21000000	     -0.08000000	     -1.04000000	      0.00000000	      0.00000000	      0.00000000	     -8.97836267	      1.29281338	     -2.62779468
      4.01500000	     -6.44884442	      5.63375013	    363.40771367	      0.26926866	      1.38485543	     -0.97005597	      2.30000000	    -10.86000000	      9.81000000	     -4.39000000	      0.00000000	      0.00000000	      0.00000000	      0.71000000	      5.21000000	     -0.08000000	     -1.04000000	      0.00000000	      0.00000000	      0.00000000	     -8.96268481	      1.24849112	     -2.66397303
      4.02000000	     -6.53563680	      5.62221449	    363.44191018	      0.27383353	      1.38492116	     -0.97003908	      2.30000000	    -10.86000000	      9.81000000	     -4.39000000	      0.00000000	      0.00000000	      0.00000000	      0.71000000	      5.21000000	     -0.08000000	     -1.04000000	      0.00000000	      0.00000000	      0.00000000	     -8.93539437	      1.22736709	     -2.69795243
      4.02500000	     -6.59812704	      5.63034077	    363.47366914	      0.27840002	      1.38501600	     -0.97004289	      2.30000000	    -10.86000000	      9.81000000	     -4.39000000	      0.00000000	      0.00000000	      0.00000000	      0.71000000	      5.21000000	     -0.08000000	     -1.04000000	      0.00000000	      0.00000000	      0.00000000	     -8.94284342	      1.18780002	     -2.73037106
      4.03000000	     -6.68141046	      5.62175905	    363.50821344	      0.28298207	      1.38504180	     -0.97006929	      2.30000000	    -10.86000000	      9.81000000	     -4.39000000	      0.00000000	      0.00000000	      0.00000000	      0.71000000	      5.21000000	     -0.08000000	     -1.04000000	      0.00000000	      0.00000000	      0.00000000	     -8.91678967	      1.16573213	     -2.75948646
      4.03500000	     -6.76663765	      5.59428910	    363.53993598	      0.28755303	      1.38503731	     -0.97011292	      2.30000000	    -10.86000000	      9.81000000	     -4.39000000	      0.00000000	      0.00000000	      0.00000000	      0.71000000	      5.21000000	     -0.08000000	     -1.04000000	      0.00000000	      0.00000000	      0.00000000	     -8.89741259	      1.16696616	     -2.78576976
      4.04000000	     -6.83328235	      5.59840719	    363.57241352	      0.29213951	      1.38504826	     -0.97018701	      2.30000000	    -10.86000000	      9.81000000	     -4.39000000	      0.00000000	      0.00000000	      0.00000000	      0.71000000	      5.21000000	     -0.08000000	     -1.04000000	      0.00000000	      0.00000000	      0.00000000	     -8.89708579	      1.13741617	     -2.82037091
      4.04500000	     -6.90743734	      5.55956876	    363.59903480	      0.29672780	      1.38497175	     -0.97027190	      2.30000000	    -10.86000000	      9.81000000	     -4.39000000	      0.00000000	      0.00000000	      0.00000000	      0.71000000	      5.21000000	     -0.08000000	     -1.04000000	      0.00000000	      0.00000000	      0.00000000	     -8.88893101	      1.15766687	     -2.84809653
      4.05000000	     -6.96802488	      5.55488152	    363.62429289	      0.30132102	      1.38493068	     -0.97037903	      2.30000000	    -10.86000000	      9.81000000	     -4.39000000	      0.00000000	      0.00000000	      0.00000000	      0.71000000	      5.21000000	     -0.08000000	     -1.04000000	      0.00000000	      0.00000000	      0.00000000	     -8.89858881	      1.14314299	     -2.88549331
      4.05500000	     -7.03460591	      5.53118278	    363.64532667	      0.30593423	      1.38481604	     -0.97050542	      2.30000000	    -10.86000000	      9.81000000	     -4.39000000	      0.00000000	      0.00000000	      0.00000000	      0.71000000	      5.21000000	     -0.08000000	     -1.04000000	      0.00000000	      0.00000000	      0.00000000	     -8.89590356	      1.15303288	     -2.92109138
      4.06000000	     -7.09534872	      5.51319422	    363.66129486	      0.31056139	      1.38470283	     -0.97064880	      2.30000000	    -10.86000000	      9.81000000	     -4.39000000	      0.00000000	      0.00000000	      0.00000000	      0.71000000	      5.21000000	     -0.08000000	     -1.04000000	      0.00000000	      0.00000000	      0.00000000	     -8.89647035	      1.15933296	     -2.95984367
